<svg width="36" height="24" viewBox="0 0 36 24" fill="none" xmlns="http://www.w3.org/2000/svg">
<path fill-rule="evenodd" clip-rule="evenodd" d="M35.5003 11.9996C35.5003 11.6681 35.3686 11.3502 35.1342 11.1157C34.8998 10.8813 34.5818 10.7496 34.2503 10.7496H4.76778L12.6353 2.88463C12.7515 2.76841 12.8437 2.63043 12.9066 2.47858C12.9695 2.32674 13.0019 2.16399 13.0019 1.99963C13.0019 1.83527 12.9695 1.67252 12.9066 1.52067C12.8437 1.36882 12.7515 1.23085 12.6353 1.11463C12.5191 0.998406 12.3811 0.906215 12.2292 0.843318C12.0774 0.78042 11.9146 0.748047 11.7503 0.748047C11.5859 0.748047 11.4232 0.78042 11.2713 0.843318C11.1195 0.906215 10.9815 0.998406 10.8653 1.11463L0.865281 11.1146C0.748873 11.2307 0.656516 11.3687 0.5935 11.5205C0.530484 11.6724 0.498047 11.8352 0.498047 11.9996C0.498047 12.164 0.530484 12.3268 0.5935 12.4787C0.656516 12.6306 0.748873 12.7685 0.865281 12.8846L10.8653 22.8846C10.9815 23.0008 11.1195 23.093 11.2713 23.1559C11.4232 23.2188 11.5859 23.2512 11.7503 23.2512C11.9146 23.2512 12.0774 23.2188 12.2292 23.1559C12.3811 23.093 12.5191 23.0008 12.6353 22.8846C12.7515 22.7684 12.8437 22.6304 12.9066 22.4786C12.9695 22.3267 13.0019 22.164 13.0019 21.9996C13.0019 21.8353 12.9695 21.6725 12.9066 21.5207C12.8437 21.3688 12.7515 21.2308 12.6353 21.1146L4.76778 13.2496H34.2503C34.5818 13.2496 34.8998 13.1179 35.1342 12.8835C35.3686 12.6491 35.5003 12.3311 35.5003 11.9996Z" fill="#9E2719"/>
</svg>
