<svg width="36" height="24" viewBox="0 0 36 24" fill="none" xmlns="http://www.w3.org/2000/svg">
<path fill-rule="evenodd" clip-rule="evenodd" d="M0.499714 12.0004C0.499714 12.3319 0.631409 12.6498 0.865829 12.8843C1.10025 13.1187 1.41819 13.2504 1.74971 13.2504L31.2322 13.2504L23.3647 21.1154C23.2485 21.2316 23.1563 21.3696 23.0934 21.5214C23.0305 21.6733 22.9981 21.836 22.9981 22.0004C22.9981 22.1647 23.0305 22.3275 23.0934 22.4793C23.1563 22.6312 23.2485 22.7692 23.3647 22.8854C23.4809 23.0016 23.6189 23.0938 23.7708 23.1567C23.9226 23.2196 24.0854 23.252 24.2497 23.252C24.4141 23.252 24.5768 23.2196 24.7287 23.1567C24.8805 23.0938 25.0185 23.0016 25.1347 22.8854L35.1347 12.8854C35.2511 12.7693 35.3435 12.6313 35.4065 12.4795C35.4695 12.3276 35.502 12.1648 35.502 12.0004C35.502 11.836 35.4695 11.6732 35.4065 11.5213C35.3435 11.3694 35.2511 11.2315 35.1347 11.1154L25.1347 1.11538C25.0185 0.999157 24.8805 0.906965 24.7287 0.844069C24.5768 0.78117 24.4141 0.748798 24.2497 0.748798C24.0854 0.748798 23.9226 0.78117 23.7708 0.844069C23.6189 0.906965 23.4809 0.999157 23.3647 1.11538C23.2485 1.2316 23.1563 1.36957 23.0934 1.52142C23.0305 1.67327 22.9981 1.83602 22.9981 2.00038C22.9981 2.16474 23.0305 2.32749 23.0934 2.47934C23.1563 2.63118 23.2485 2.76916 23.3647 2.88538L31.2322 10.7504L1.74971 10.7504C1.41819 10.7504 1.10025 10.8821 0.865829 11.1165C0.631409 11.3509 0.499714 11.6689 0.499714 12.0004Z" fill="#9E2719"/>
</svg>
