<svg width="19" height="12" viewBox="0 0 19 12" fill="none" xmlns="http://www.w3.org/2000/svg">
<path fill-rule="evenodd" clip-rule="evenodd" d="M0.849609 5.99981C0.849609 5.83405 0.915457 5.67508 1.03267 5.55787C1.14988 5.44066 1.30885 5.37481 1.47461 5.37481H16.2159L12.2821 1.44231C12.1648 1.32495 12.0988 1.16578 12.0988 0.999813C12.0988 0.833843 12.1648 0.674671 12.2821 0.557313C12.3995 0.439954 12.5586 0.374023 12.7246 0.374023C12.8906 0.374023 13.0498 0.439955 13.1671 0.557313L18.1671 5.55731C18.2253 5.61537 18.2715 5.68434 18.303 5.76027C18.3345 5.8362 18.3507 5.9176 18.3507 5.99981C18.3507 6.08202 18.3345 6.16342 18.303 6.23935C18.2715 6.31529 18.2253 6.38426 18.1671 6.44231L13.1671 11.4423C13.0498 11.5597 12.8906 11.6256 12.7246 11.6256C12.5586 11.6256 12.3995 11.5597 12.2821 11.4423C12.1648 11.325 12.0988 11.1658 12.0988 10.9998C12.0988 10.8338 12.1648 10.6747 12.2821 10.5573L16.2159 6.62481H1.47461C1.30885 6.62481 1.14988 6.55897 1.03267 6.44175C0.915457 6.32454 0.849609 6.16557 0.849609 5.99981Z" fill="#F2F2F2"/>
</svg>
