<svg width="166" height="135" viewBox="0 0 166 135" fill="none" xmlns="http://www.w3.org/2000/svg">
<path d="M0 92.2781C0 85.4189 5.13717 81.293 10.6023 81.293C15.9478 81.293 19.1255 84.4415 20.0753 88.1248L16.72 89.2556C16.0948 86.6999 14.1353 84.6515 10.6023 84.6515C7.12742 84.6515 3.65579 87.1749 3.65579 92.283C3.65579 97.2133 7.04826 99.8272 10.6346 99.8272C14.1676 99.8272 16.1885 97.5655 16.901 95.194L20.1674 96.2635C19.2175 99.8272 16.0092 103.242 10.6362 103.242C4.95785 103.237 0 99.139 0 92.2781Z" fill="#F2F2F2"/>
<path d="M38.4271 97.5052H29.5178L27.5566 102.791H23.7861L31.9862 81.7432H36.1137L44.3106 102.799H40.4173L38.4271 97.5052ZM30.7649 94.2081H37.1799L33.9732 85.596L30.7649 94.2081Z" fill="#F2F2F2"/>
<path d="M56.4228 85.0923V102.791H52.8591V85.0923H46.0273V81.7354H63.2821V85.0923H56.4228Z" fill="#F2F2F2"/>
<path d="M79.6416 97.5052H70.7356L68.776 102.791H65.0039L73.1991 81.7432H77.3283L85.5251 102.799H81.6351L79.6416 97.5052ZM71.9795 94.2081H78.3977L75.1894 85.596L71.9795 94.2081Z" fill="#F2F2F2"/>
<path d="M91.3154 102.791V81.7354H94.8775V99.4053H104.53V102.791H91.3154Z" fill="#F2F2F2"/>
<path d="M106.519 81.7354H110.737L115.785 90.5558L120.862 81.7354H124.872L117.447 93.882V102.791H113.885V93.882L106.519 81.7354Z" fill="#F2F2F2"/>
<path d="M140.847 87.6753C140.64 86.3684 139.54 84.4444 136.72 84.4444C134.582 84.4444 133.096 85.8692 133.096 87.4734C133.096 88.8094 133.928 89.8207 135.561 90.1761L138.59 90.7899C142.306 91.5314 144.293 93.8787 144.293 96.8495C144.293 100.116 141.65 103.234 136.839 103.234C131.494 103.234 129.028 99.7881 128.702 96.7591L132.028 95.8092C132.235 98.0062 133.805 100.027 136.839 100.027C139.363 100.027 140.669 98.7493 140.669 97.1193C140.669 95.7526 139.66 94.6541 137.849 94.268L134.878 93.6444C131.67 92.9983 129.532 90.8836 129.532 87.7335C129.532 84.2005 132.763 81.291 136.691 81.291C141.65 81.291 143.581 84.32 144.055 86.6657L140.847 87.6753Z" fill="#F2F2F2"/>
<path d="M148.747 81.7354V85.0923H155.577V102.791H159.141V85.0923H166V81.7354H148.747Z" fill="#F2F2F2"/>
<path d="M31.789 116.77L34.9973 125.381H28.5823L31.789 116.77ZM29.8004 112.909L21.6035 133.963H25.3756L27.3352 128.678H36.2444L38.2347 133.963H42.1247L33.9246 112.909H29.8004Z" fill="#F2F2F2"/>
<path d="M47.915 112.909V133.963H51.4771V125.471H60.031V122.175H51.4771V116.264H61.0116V112.909H47.915Z" fill="#F2F2F2"/>
<path d="M73.6311 125.649H71.0173V133.963H67.4229V112.909H75.5002C79.5695 112.909 82.0929 115.73 82.0929 119.293C82.0929 122.292 80.2819 124.579 77.3418 125.292L82.0929 133.963H78.0542L73.6311 125.649ZM74.8491 122.5C77.0462 122.5 78.471 121.224 78.471 119.293C78.471 117.334 77.0462 116.063 74.8491 116.063H71.0173V122.507L74.8491 122.5Z" fill="#F2F2F2"/>
<path d="M92.4887 112.909H88.8652V133.963H92.4887V112.909Z" fill="#F2F2F2"/>
<path d="M99.2285 123.451C99.2285 116.59 104.366 112.466 109.831 112.466C115.176 112.466 118.352 115.613 119.304 119.296L115.947 120.427C115.325 117.874 113.362 115.824 109.831 115.824C106.356 115.824 102.884 118.349 102.884 123.457C102.884 128.386 106.277 131 109.863 131C113.398 131 115.417 128.738 116.129 126.367L119.396 127.436C118.446 131 115.238 134.415 109.865 134.415C104.193 134.415 99.2334 130.317 99.2334 123.457" fill="#F2F2F2"/>
<path d="M133.199 116.77L136.407 125.381H129.992L133.199 116.77ZM131.209 112.909L123.014 133.963H126.786L128.752 128.678H137.661L139.651 133.963H143.541L135.338 112.909H131.209Z" fill="#F2F2F2"/>
<path d="M74.9987 24.018C74.328 24.03 73.6617 23.9083 73.0386 23.6599C72.4155 23.4116 71.8481 23.0416 71.3696 22.5715C70.891 22.1015 70.511 21.5408 70.2515 20.9222C69.992 20.3037 69.8584 19.6396 69.8584 18.9689C69.8584 18.2981 69.992 17.6341 70.2515 17.0155C70.511 16.397 70.891 15.8363 71.3696 15.3662C71.8481 14.8962 72.4155 14.5262 73.0386 14.2778C73.6617 14.0295 74.328 13.9078 74.9987 13.9198H94.0886L95.6572 17.0586H74.9987C74.7431 17.0512 74.4887 17.0951 74.2504 17.1877C74.0122 17.2804 73.7949 17.4199 73.6115 17.598C73.4282 17.7762 73.2824 17.9893 73.1828 18.2247C73.0833 18.4602 73.032 18.7132 73.032 18.9689C73.032 19.2245 73.0833 19.4776 73.1828 19.713C73.2824 19.9485 73.4282 20.1616 73.6115 20.3397C73.7949 20.5178 74.0122 20.6574 74.2504 20.75C74.4887 20.8427 74.7431 20.8866 74.9987 20.8792H110.668L109.099 24.018H74.9987Z" fill="#F2F2F2"/>
<path d="M74.9982 30.9769C73.4095 30.9953 71.833 30.6983 70.3599 30.1031C68.8868 29.5079 67.5464 28.6262 66.4164 27.5093C65.2865 26.3924 64.3894 25.0624 63.7771 23.5963C63.1649 22.1302 62.8496 20.5571 62.8496 18.9683C62.8496 17.3795 63.1649 15.8065 63.7771 14.3404C64.3894 12.8743 65.2865 11.5443 66.4164 10.4273C67.5464 9.31041 68.8868 8.4288 70.3599 7.83358C71.833 7.23836 73.4095 6.94137 74.9982 6.95979H93.463L94.9896 10.1003H74.9982C72.6461 10.1003 70.3902 11.0346 68.727 12.6979C67.0637 14.3611 66.1293 16.617 66.1293 18.9691C66.1293 21.3213 67.0637 23.5771 68.727 25.2404C70.3902 26.9036 72.6461 27.838 74.9982 27.838H107.532L105.975 30.9769H74.9982Z" fill="#F2F2F2"/>
<path d="M74.302 37.9367C71.7964 37.9598 69.311 37.4863 66.9894 36.5434C64.6678 35.6006 62.556 34.2071 60.7761 32.4434C58.9961 30.6798 57.5832 28.581 56.6189 26.2682C55.6547 23.9554 55.1582 21.4745 55.1582 18.9688C55.1582 16.463 55.6547 13.9821 56.6189 11.6693C57.5832 9.35653 58.9961 7.2577 60.7761 5.49407C62.556 3.73044 64.6678 2.33695 66.9894 1.39409C69.311 0.451228 71.7964 -0.0223161 74.302 0.000807797H90.3048L91.854 3.14127H74.302C70.1032 3.14127 66.0764 4.80923 63.1074 7.77821C60.1384 10.7472 58.4705 14.774 58.4705 18.9728C58.4705 23.1716 60.1384 27.1984 63.1074 30.1674C66.0764 33.1364 70.1032 34.8043 74.302 34.8043H98.1349L96.5566 37.9432L74.302 37.9367Z" fill="#F2F2F2"/>
<path d="M96.5598 44.8957H79.1807V41.7568H98.1268L96.5598 44.8957Z" fill="#F2F2F2"/>
<path d="M90.2886 51.8556H79.1807V48.7168H91.8572L90.2886 51.8556Z" fill="#F2F2F2"/>
<path d="M87.1546 58.8146H79.1807V55.6758H88.7216L87.1546 58.8146Z" fill="#F2F2F2"/>
</svg>
