<svg width="367" height="584" viewBox="0 0 367 584" fill="none" xmlns="http://www.w3.org/2000/svg">
<g opacity="0.66">
<path d="M224.916 292C224.941 312.607 233.135 332.363 247.703 346.935C262.27 361.506 282.021 369.704 302.622 369.728H367V321.395H302.622C294.935 321.231 287.618 318.061 282.239 312.565C276.86 307.069 273.848 299.685 273.848 291.993C273.848 284.302 276.86 276.917 282.239 271.421C287.618 265.926 294.935 262.756 302.622 262.592H367V214.272H302.622C282.018 214.297 262.266 222.496 247.698 237.07C233.13 251.644 224.937 271.404 224.916 292.013" fill="#00C98F"/>
<path d="M117.811 292C117.811 393.928 200.723 476.864 302.622 476.864H367V428.53H302.622C266.756 428.029 232.529 413.425 207.343 387.878C182.157 362.331 168.037 327.893 168.037 292.013C168.037 256.133 182.157 221.696 207.343 196.148C232.529 170.601 266.756 155.997 302.622 155.496H367V107.136H302.622C200.723 107.136 117.811 190.058 117.811 292Z" fill="#00C98F"/>
<path d="M291.917 0C130.953 0 0 130.99 0 292C0 453.01 130.953 584 291.917 584H367V535.666H291.917C157.596 535.666 48.2534 426.359 48.2534 292C48.2534 157.641 157.529 48.2671 291.917 48.2671H367V0H291.917Z" fill="#00C98F"/>
</g>
</svg>
