<svg xmlns="http://www.w3.org/2000/svg" viewBox="0 0 2323.06 329.12">
  <defs>
    <style>
      .cls-1 {
        fill: #fff;
      }
    </style>
  </defs>
  <g id="Layer_2" data-name="Layer 2">
    <g id="Layer_1-2" data-name="Layer 1">
      <g>
        <g>
          <g>
            <path class="cls-1" d="M442.32,164.65c0-43.23,32.38-69.24,66.81-69.24,33.69,0,53.71,19.84,59.7,43l-21.14,7.12c-3.94-16.1-16.29-29-38.56-29-21.89,0-43.78,15.9-43.78,48.09,0,31.07,21.32,47.54,44,47.54,22.28,0,35-14.22,39.49-29.2l20.59,6.74c-6,22.46-26.2,44-60.08,44-35.74,0-67-25.83-67-69.06"/>
            <path class="cls-1" d="M684.47,197.59H628.34L616,230.9H592.21L643.86,98.22h26L721.53,230.9H697Zm-48.28-20.77h40.42L656.4,122.55Z"/>
            <polygon class="cls-1" points="797.87 119.36 797.87 230.9 775.41 230.9 775.41 119.36 732.37 119.36 732.37 98.21 841.1 98.21 841.1 119.36 797.87 119.36"/>
            <path class="cls-1" d="M944.21,197.59H888.07L875.72,230.9H852L903.6,98.22h26L981.26,230.9H956.75Zm-48.28-20.77h40.42l-20.22-54.27Z"/>
            <polygon class="cls-1" points="1017.75 230.9 1017.75 98.22 1040.2 98.22 1040.2 209.57 1101.02 209.57 1101.02 230.9 1017.75 230.9"/>
            <polygon class="cls-1" points="1113.56 98.22 1140.13 98.22 1171.94 153.8 1203.94 98.22 1229.21 98.22 1182.42 174.76 1182.42 230.9 1159.97 230.9 1159.97 174.76 1113.56 98.22"/>
            <path class="cls-1" d="M1329.88,135.65c-1.31-8.24-8.24-20.4-26-20.4-13.47,0-22.83,9-22.83,19.09,0,8.41,5.25,14.78,15.54,17l19.09,3.94c23.39,4.67,35.92,19.46,35.92,38.18,0,20.58-16.65,40.23-47,40.23-33.69,0-49.22-21.71-51.28-40.8l21-6c1.31,13.85,11.22,26.58,30.32,26.58,15.9,0,24.14-8.05,24.14-18.34,0-8.61-6.37-15.54-17.78-18l-18.72-3.93c-20.21-4.12-33.68-17.4-33.68-37.24,0-22.27,20.4-40.61,45.1-40.61,31.25,0,43.42,19.09,46.41,33.87Z"/>
            <polygon class="cls-1" points="1379.65 98.22 1379.65 119.37 1422.69 119.37 1422.69 230.9 1445.15 230.9 1445.15 119.37 1488.38 119.37 1488.38 98.22 1379.65 98.22"/>
          </g>
          <g>
            <path class="cls-1" d="M1606.35,98.22,1554.7,230.9h23.77l12.35-33.31H1647l12.54,33.31H1684L1632.36,98.22Zm12.54,24.33,20.21,54.27h-40.42Z"/>
            <polygon class="cls-1" points="1720.49 98.22 1720.49 230.9 1742.95 230.9 1742.95 177.38 1796.85 177.38 1796.85 156.61 1742.95 156.61 1742.95 119.36 1803.03 119.36 1803.03 98.22 1720.49 98.22"/>
            <path class="cls-1" d="M1882.55,178.5h-16.47v52.4h-22.65V98.22h50.91c25.64,0,41.54,17.77,41.54,40.24,0,18.89-11.41,33.31-29.94,37.8l29.94,54.64h-25.45Zm7.68-19.84c13.84,0,22.82-8,22.82-20.2,0-12.36-9-20.41-22.82-20.41h-24.15v40.61Z"/>
            <rect class="cls-1" x="1978.55" y="98.22" width="22.83" height="132.68"/>
            <path class="cls-1" d="M2043.85,164.65c0-43.23,32.38-69.24,66.81-69.24,33.68,0,53.7,19.84,59.69,43l-21.14,7.12c-3.93-16.1-16.28-29-38.55-29-21.9,0-43.79,15.91-43.79,48.09,0,31.07,21.33,47.54,44,47.54,22.27,0,35-14.22,39.49-29.2l20.58,6.74c-6,22.46-26.2,44-60.07,44-35.75,0-67-25.83-67-69.06"/>
            <path class="cls-1" d="M2245.39,98.22,2193.74,230.9h23.77l12.35-33.31H2286l12.54,33.31h24.52L2271.4,98.22Zm12.54,24.33,20.21,54.27h-40.42Z"/>
          </g>
        </g>
        <g>
          <path class="cls-1" d="M110,134.4a28.26,28.26,0,1,1,0-56.51H216.87l8.77,17.57H110a10.69,10.69,0,1,0,0,21.37h199.6l-8.78,17.57Z"/>
          <path class="cls-1" d="M110,173.34A67.2,67.2,0,1,1,110,39H213.37l8.55,17.56H110a49.64,49.64,0,0,0,0,99.27H292.1l-8.75,17.56Z"/>
          <path class="cls-1" d="M106.14,212.29A106.15,106.15,0,0,1,106.14,0h89.57l8.67,17.57H106.14a88.58,88.58,0,0,0,0,177.15H239.51l-8.83,17.57Z"/>
          <polygon class="cls-1" points="230.69 251.23 133.45 251.23 133.45 233.66 239.47 233.66 230.69 251.23"/>
          <polygon class="cls-1" points="195.61 290.18 133.44 290.18 133.44 272.61 204.38 272.61 195.61 290.18"/>
          <polygon class="cls-1" points="178.06 329.12 133.44 329.12 133.44 311.55 186.83 311.55 178.06 329.12"/>
        </g>
      </g>
    </g>
  </g>
</svg>
