<svg width="547" height="1022" viewBox="0 0 547 1022" fill="none" xmlns="http://www.w3.org/2000/svg">
<g opacity="0.1">
<path d="M0 362.797V417.34L519.75 417.368L547 362.797H0Z" fill="#FF6136"/>
<path d="M258.977 241.864H0V296.407H286.227L258.977 241.864Z" fill="#FF6136"/>
<path d="M0 538.271H465.389L492.527 483.729H0V538.271Z" fill="#FF6136"/>
<path d="M248.116 120.933H0V175.504H274.665L248.116 120.933Z" fill="#FF6136"/>
<path d="M0 659.203H301.859L329.278 604.66H0V659.203Z" fill="#FF6136"/>
<path d="M0 0V54.571H220.22L193.306 0H0Z" fill="#FF6136"/>
<path d="M0 780.136H301.915L329.137 725.593H0V780.136Z" fill="#FF6136"/>
<path d="M0 901.067H192.97L220.22 846.524H0V901.067Z" fill="#FF6136"/>
<path d="M0 967.457V1022H138.497L165.747 967.457H0Z" fill="#FF6136"/>
</g>
</svg>
