<svg width="940" height="1500" viewBox="0 0 940 1500" fill="none" xmlns="http://www.w3.org/2000/svg">
<path d="M575.946 750C576.009 802.93 596.994 853.673 634.297 891.1C671.6 928.527 722.175 949.581 774.93 949.644H939.783V825.5H774.93C755.245 825.079 736.508 816.938 722.735 802.822C708.961 788.706 701.248 769.737 701.248 749.983C701.248 730.229 708.961 711.26 722.735 697.144C736.508 683.028 755.245 674.887 774.93 674.467H939.783V550.356H774.93C722.169 550.419 671.589 571.478 634.285 608.912C596.981 646.347 576 697.099 575.946 750.034" fill="#000" fill-opacity="0.3"/>
<path d="M301.68 750C301.68 1011.8 513.994 1224.82 774.93 1224.82H939.783V1100.68H774.93C683.087 1099.39 595.44 1061.88 530.946 996.262C466.452 930.644 430.295 842.191 430.295 750.034C430.295 657.877 466.452 569.424 530.946 503.806C595.44 438.187 683.087 400.678 774.93 399.391H939.783V275.178H774.93C513.994 275.178 301.68 488.163 301.68 750" fill="#000" fill-opacity="0.3"/>
<path d="M747.517 0C335.333 0 0 336.446 0 750C0 1163.55 335.333 1500 747.517 1500H939.784V1375.86H747.517C403.558 1375.86 123.563 1095.1 123.563 750C123.563 404.899 403.388 123.974 747.517 123.974H939.784V0H747.517Z" fill="#000" fill-opacity="0.3"/>
</svg>
