<svg width="561" height="148" viewBox="0 0 561 148" fill="none" xmlns="http://www.w3.org/2000/svg">
<path d="M559.196 100.991C558.362 109.606 550.361 117.561 535.458 124.372C520.67 131.131 499.596 136.517 473.705 140.267C421.948 147.763 351.282 148.671 273.993 141.186C196.705 133.7 127.526 119.248 78.1691 101.96C53.4791 93.3112 33.8308 83.981 20.6143 74.5102C7.29544 64.9661 0.969715 55.6231 1.804 47.0088C2.63828 38.3945 10.6393 30.439 25.5422 23.6281C40.3304 16.8696 61.4041 11.4832 87.2947 7.73349C139.052 0.237502 209.718 -0.670838 287.007 6.81443C364.295 14.2997 433.474 28.7518 482.831 46.0406C507.521 54.6889 527.169 64.0192 540.386 73.4899C553.705 83.034 560.03 92.3771 559.196 100.991Z" stroke="#FF6136" stroke-width="3"/>
</svg>
