<svg width="62" height="60" viewBox="0 0 62 60" fill="none" xmlns="http://www.w3.org/2000/svg">
<rect x="1.5" y="1.5" width="59" height="57" rx="28.5" stroke="#2E5CFF" stroke-width="3"/>
<path d="M22.2291 23.9964C23.7396 23.9964 24.9641 22.7719 24.9641 21.2614C24.9641 19.7509 23.7396 18.5264 22.2291 18.5264C20.7186 18.5264 19.4941 19.7509 19.4941 21.2614C19.4941 22.7719 20.7186 23.9964 22.2291 23.9964Z" fill="#2E5CFF"/>
<path d="M27.5466 26.0684V41.2421H32.2579V33.7384C32.2579 31.7584 32.6304 29.8409 35.0854 29.8409C37.5066 29.8409 37.5366 32.1046 37.5366 33.8634V41.2434H42.2504V32.9221C42.2504 28.8346 41.3704 25.6934 36.5929 25.6934C34.2991 25.6934 32.7616 26.9521 32.1329 28.1434H32.0691V26.0684H27.5466ZM19.8691 26.0684H24.5879V41.2421H19.8691V26.0684Z" fill="#2E5CFF"/>
</svg>
