<svg width="34" height="34" viewBox="0 0 34 34" fill="none" xmlns="http://www.w3.org/2000/svg">
<rect x="1" y="1" width="32" height="32" rx="16" fill="#1A1A9E" stroke="#1A1A9E" stroke-width="2"/>
<path d="M12.2554 13.7012C13.0448 13.7012 13.6847 13.0613 13.6847 12.2719C13.6847 11.4826 13.0448 10.8427 12.2554 10.8427C11.4661 10.8427 10.8262 11.4826 10.8262 12.2719C10.8262 13.0613 11.4661 13.7012 12.2554 13.7012Z" fill="#F2F2F2"/>
<path d="M15.0336 14.7842V22.7138H17.4957V18.7925C17.4957 17.7577 17.6903 16.7557 18.9733 16.7557C20.2386 16.7557 20.2543 17.9387 20.2543 18.8578V22.7145H22.7176V18.3659C22.7176 16.2298 22.2578 14.5883 19.7611 14.5883C18.5624 14.5883 17.7589 15.2461 17.4304 15.8686H17.397V14.7842H15.0336ZM11.0215 14.7842H13.4874V22.7138H11.0215V14.7842Z" fill="#F2F2F2"/>
</svg>
