<svg width="34" height="34" viewBox="0 0 34 34" fill="none" xmlns="http://www.w3.org/2000/svg">
<rect x="1" y="1" width="32" height="32" rx="16" fill="#1A1A9E" stroke="#1A1A9E" stroke-width="2"/>
<path d="M24.7772 13.0856C24.2553 13.3169 23.6947 13.4731 23.1053 13.5437C23.7134 13.1799 24.1684 12.6072 24.3853 11.9325C23.814 12.2719 23.1887 12.5107 22.5366 12.6387C22.0981 12.1705 21.5172 11.8602 20.8843 11.7559C20.2513 11.6516 19.6016 11.7592 19.0361 12.062C18.4705 12.3648 18.0208 12.8458 17.7567 13.4304C17.4925 14.015 17.4288 14.6705 17.5753 15.295C16.4176 15.2369 15.2851 14.936 14.2512 14.4118C13.2173 13.8877 12.3052 13.152 11.5741 12.2525C11.3241 12.6837 11.1803 13.1837 11.1803 13.7162C11.18 14.1956 11.2981 14.6676 11.524 15.0904C11.7499 15.5133 12.0767 15.8738 12.4753 16.14C12.013 16.1253 11.5609 16.0004 11.1566 15.7756V15.8131C11.1565 16.4854 11.3891 17.1371 11.8148 17.6575C12.2405 18.1779 12.8332 18.5349 13.4922 18.6681C13.0633 18.7842 12.6136 18.8013 12.1772 18.7181C12.3631 19.2966 12.7253 19.8025 13.213 20.1649C13.7008 20.5274 14.2896 20.7282 14.8972 20.7394C13.8658 21.549 12.5921 21.9882 11.2809 21.9862C11.0487 21.9863 10.8166 21.9727 10.5859 21.9456C11.9169 22.8013 13.4662 23.2555 15.0484 23.2537C20.4047 23.2537 23.3328 18.8175 23.3328 14.97C23.3328 14.845 23.3297 14.7187 23.3241 14.5937C23.8936 14.1818 24.3853 13.6718 24.7759 13.0875L24.7772 13.0856Z" fill="#F2F2F2"/>
</svg>
