<svg width="34" height="34" viewBox="0 0 34 34" fill="none" xmlns="http://www.w3.org/2000/svg">
<rect x="1" y="1" width="32" height="32" rx="16" stroke="#1A1A9E" stroke-width="2"/>
<path d="M12.2554 13.7013C13.0448 13.7013 13.6847 13.0614 13.6847 12.272C13.6847 11.4827 13.0448 10.8428 12.2554 10.8428C11.4661 10.8428 10.8262 11.4827 10.8262 12.272C10.8262 13.0614 11.4661 13.7013 12.2554 13.7013Z" fill="#1A1A9E"/>
<path d="M15.0336 14.7843V22.714H17.4957V18.7926C17.4957 17.7579 17.6903 16.7558 18.9733 16.7558C20.2386 16.7558 20.2543 17.9388 20.2543 18.8579V22.7146H22.7176V18.366C22.7176 16.23 22.2578 14.5884 19.7611 14.5884C18.5624 14.5884 17.7589 15.2462 17.4304 15.8687H17.397V14.7843H15.0336ZM11.0215 14.7843H13.4874V22.714H11.0215V14.7843Z" fill="#1A1A9E"/>
</svg>
