<svg width="34" height="34" viewBox="0 0 34 34" fill="none" xmlns="http://www.w3.org/2000/svg">
<rect x="1" y="1" width="32" height="32" rx="16" stroke="#1A1A9E" stroke-width="2"/>
<path d="M24.7772 13.0857C24.2553 13.317 23.6947 13.4732 23.1053 13.5439C23.7134 13.18 24.1684 12.6073 24.3853 11.9326C23.814 12.272 23.1887 12.5109 22.5366 12.6389C22.0981 12.1706 21.5172 11.8603 20.8843 11.756C20.2513 11.6517 19.6016 11.7594 19.0361 12.0621C18.4705 12.3649 18.0208 12.846 17.7567 13.4305C17.4925 14.0151 17.4288 14.6706 17.5753 15.2951C16.4176 15.237 15.2851 14.9361 14.2512 14.4119C13.2173 13.8878 12.3052 13.1521 11.5741 12.2526C11.3241 12.6839 11.1803 13.1839 11.1803 13.7164C11.18 14.1957 11.2981 14.6678 11.524 15.0906C11.7499 15.5134 12.0767 15.8739 12.4753 16.1401C12.013 16.1254 11.5609 16.0005 11.1566 15.7757V15.8132C11.1565 16.4856 11.3891 17.1372 11.8148 17.6576C12.2405 18.178 12.8332 18.5351 13.4922 18.6682C13.0633 18.7843 12.6136 18.8014 12.1772 18.7182C12.3631 19.2967 12.7253 19.8026 13.213 20.1651C13.7008 20.5275 14.2896 20.7283 14.8972 20.7395C13.8658 21.5491 12.5921 21.9883 11.2809 21.9864C11.0487 21.9864 10.8166 21.9729 10.5859 21.9457C11.9169 22.8015 13.4662 23.2556 15.0484 23.2539C20.4047 23.2539 23.3328 18.8176 23.3328 14.9701C23.3328 14.8451 23.3297 14.7189 23.3241 14.5939C23.8936 14.182 24.3853 13.6719 24.7759 13.0876L24.7772 13.0857Z" fill="#1A1A9E"/>
</svg>
