<svg width="33" height="33" viewBox="0 0 33 33" fill="none" xmlns="http://www.w3.org/2000/svg">
<rect x="1.10156" y="1.82227" width="30.4004" height="29.3552" rx="14.6776" stroke="#2E5CFF" stroke-width="2"/>
<path d="M11.7144 13.3625C12.5038 13.3625 13.1437 12.7225 13.1437 11.9332C13.1437 11.1438 12.5038 10.5039 11.7144 10.5039C10.9251 10.5039 10.2852 11.1438 10.2852 11.9332C10.2852 12.7225 10.9251 13.3625 11.7144 13.3625Z" fill="#F2F2F2"/>
<path d="M14.4965 14.4455V22.3751H16.9586V18.4537C16.9586 17.419 17.1532 16.4169 18.4362 16.4169C19.7015 16.4169 19.7172 17.5999 19.7172 18.519V22.3757H22.1805V18.0272C22.1805 15.8911 21.7206 14.2495 19.224 14.2495C18.0253 14.2495 17.2218 14.9073 16.8933 15.5298H16.8599V14.4455H14.4965ZM10.4844 14.4455H12.9503V22.3751H10.4844V14.4455Z" fill="#F2F2F2"/>
</svg>
